:SAMPLES-PER-SECOND 30
:FULLY-SPECIFIED
:DEGREES
631
root  71.131 39.6327 -8.67433 -164.004 -77.9104 -177.202
RightUpLeg  -29.8787 -6.19043 -0.506833
RightLeg  3.71844 -4.97409 6.92683
RightFoot  7.82753 0.482299 -2.53578
RightToes  -1.16417e-010 0 -3.6325e-017
Spine  34.8535 -4.77273 6.97171
Spine1  6.01673 -2.89404 -1.96257
HEad  -54.1051 12.2205 -16.9785
LeftShoulder1  12.1103 -20.296 -44.2676
LeftArm  3.975 -39.3735 -48.7777
LeftForeArm  10.3167 -1.01115 -11.2989
LeftHand  -0.244104 0.0205437 5.32207
RightShoulder  8.37751 15.4374 38.149
RightArm  11.2441 23.3458 41.1028
RightForeArm  -65.7915 21.5914 8.50059
RightHand  -3.14665 9.91111 -23.8746
LeftUpLeg  -23.3848 15.098 12.1904
LeftLeg  2.38797 27.3305 -5.92413
LeftFoot  8.88746 0.809904 -4.84321
LeftToes  -2.09216e-011 1.96776e-011 -5.83545e-012
632
root  71.1675 39.6149 -9.03075 -164.73 -80.3988 -176.315
RightUpLeg  -30.3983 -6.48563 -0.281954
RightLeg  4.98481 -7.17404 7.08084
RightFoot  7.06921 0.650559 -3.71065
RightToes  -1.16417e-010 0 -3.6325e-017
Spine  35.0516 -4.46547 7.72746
Spine1  5.64824 -2.48068 -1.39462
HEad  -53.5358 9.9448 -15.9224
LeftShoulder1  11.8517 -20.4395 -42.9895
LeftArm  2.83591 -43.3197 -48.0117
LeftForeArm  9.50807 -2.04443 -10.9297
LeftHand  -0.244104 0.0205437 5.32207
RightShoulder  8.45846 15.454 38.5214
RightArm  11.3497 28.815 41.3434
RightForeArm  -66.73 20.6925 9.04499
RightHand  -3.21817 10.1848 -23.9753
LeftUpLeg  -23.4691 13.8824 12.737
LeftLeg  0.371585 26.3228 -6.37334
LeftFoot  10.6101 0.896757 -4.95667
LeftToes  -2.09216e-011 1.96776e-011 -5.83545e-012
633
root  71.2152 39.6005 -9.35227 -165.581 -82.5358 -175.635
RightUpLeg  -30.73 -6.76396 -0.108609
RightLeg  6.39496 -9.01148 7.03269
RightFoot  6.39648 0.784569 -4.74102
RightToes  -1.16417e-010 0 -3.6325e-017
Spine  35.3776 -4.08373 8.46875
Spine1  4.9913 -1.88103 -1.20651
HEad  -52.3933 7.77894 -14.8564
LeftShoulder1  11.4941 -20.4956 -41.492
LeftArm  2.03623 -48.2449 -46.6217
LeftForeArm  7.73245 -4.47827 -10.749
LeftHand  -0.244104 0.0205437 5.32207
RightShoulder  8.33089 15.4336 37.9199
RightArm  12.6782 34.8982 41.6747
RightForeArm  -69.7342 21.7782 8.63151
RightHand  -3.48932 10.8622 -24.905
LeftUpLeg  -23.2293 13.3054 12.9684
LeftLeg  -1.49388 24.8445 -6.62146
LeftFoot  12.3732 1.01723 -5.20448
LeftToes  -2.09216e-011 1.96776e-011 -5.83545e-012
634
root  71.277 39.5796 -9.63858 -165.966 -84.4988 -175.558
RightUpLeg  -31.0874 -7.26511 0.0909509
RightLeg  8.02506 -10.4676 6.75657
RightFoot  5.63041 0.865197 -5.53193
RightToes  -1.16417e-010 0 -3.6325e-017
Spine  35.748 -3.74606 9.2208
Spine1  4.29407 -1.27112 -1.29818
HEad  -51.4133 5.57233 -13.874
LeftShoulder1  11.0333 -20.4243 -39.8107
LeftArm  3.07368 -53.5737 -44.1176
LeftForeArm  3.12882 -10.3762 -9.54558
LeftHand  -0.244104 0.0205437 5.32207
RightShoulder  7.99395 15.4026 36.2605
RightArm  12.2795 41.1745 41.3234
RightForeArm  -69.2284 25.2212 7.75382
RightHand  -3.2179 10.0279 -24.1846
LeftUpLeg  -23.0632 12.859 13.0777
LeftLeg  -2.85125 23.3576 -6.70877
LeftFoot  14.0468 1.16056 -5.53373
LeftToes  -2.09216e-011 1.96776e-011 -5.83545e-012
635
root  71.3376 39.5438 -9.88208 -165.443 -86.5037 -176.279
RightUpLeg  -31.6476 -8.53231 0.607038
RightLeg  9.79532 -11.1835 6.29405
RightFoot  4.72759 0.88698 -6.04398
RightToes  -1.16417e-010 0 -3.6325e-017
Spine  35.8747 -3.61225 10.0318
Spine1  3.94427 -0.827719 -1.66384
HEad  -51.1568 3.43626 -12.6846
LeftShoulder1  10.5813 -20.2763 -38.2729
LeftArm  2.28832 -58.5725 -40.1131
LeftForeArm  -1.62981 -20.4694 -6.18459
LeftHand  -0.244104 0.0205437 5.32207
RightShoulder  7.45165 15.1749 33.9104
RightArm  4.65701 47.5504 39.5836
RightForeArm  -60.3579 29.9227 8.67698
RightHand  -1.89136 5.91335 -19.2457
LeftUpLeg  -23.3554 12.4963 13.0628
LeftLeg  -3.50659 21.6933 -6.60616
LeftFoot  15.4605 1.32024 -5.93844
LeftToes  -2.09216e-011 1.96776e-011 -5.83545e-012
636
root  71.3827 39.4933 -10.0762 -166.668 -88.4092 -175.156
RightUpLeg  -32.3319 -10.4921 1.53403
RightLeg  11.5163 -11.0507 5.76206
RightFoot  3.86575 0.892925 -6.47938
RightToes  -1.16417e-010 0 -3.6325e-017
Spine  35.9878 -3.69289 10.8075
Spine1  3.60516 -0.532776 -2.40997
HEad  -51.3122 1.7715 -11.1659
LeftShoulder1  10.25 -20.0789 -37.2816
LeftArm  -15.1185 -63.2444 -34.28
LeftForeArm  5.6174 -31.0557 -6.32294
LeftHand  -0.244104 0.0205437 5.32207
RightShoulder  6.78524 14.6958 31.3045
RightArm  -5.93505 53.6877 37.2644
RightForeArm  -51.0422 34.6071 9.88308
RightHand  -0.672209 1.39637 -11.7879
LeftUpLeg  -23.8902 12.2693 13.0277
LeftLeg  -3.68107 19.8022 -6.40726
LeftFoot  16.4187 1.50171 -6.48392
LeftToes  -2.09216e-011 1.96776e-011 -5.83545e-012
637
root  71.4058 39.4342 -10.2298 -166.598 -89.8881 -175.37
RightUpLeg  -32.9813 -12.7594 2.88098
RightLeg  13.0619 -10.0811 5.20324
RightFoot  3.14875 0.908311 -6.96145
RightToes  -1.16417e-010 0 -3.6325e-017
Spine  36.5397 -3.81848 11.4163
Spine1  2.39938 -0.234104 -3.49409
HEad  -50.8677 0.751938 -9.55087
LeftShoulder1  9.89009 -19.7308 -36.4143
LeftArm  -32.3898 -67.6317 -29.9522
LeftForeArm  9.02078 -40.0938 -8.84066
LeftHand  -0.244104 0.0205437 5.32207
RightShoulder  6.16884 14.2028 28.8302
RightArm  -17.0187 59.0413 35.3299
RightForeArm  -44.0186 37.3882 10.5875
RightHand  -0.320707 0.844375 -6.3958
LeftUpLeg  -24.2606 12.2137 13.1182
LeftLeg  -3.63431 17.9571 -6.19108
LeftFoot  16.7806 1.68365 -7.13174
LeftToes  -2.09216e-011 1.96776e-011 -5.83545e-012
